<svg width="278" height="98" viewBox="0 0 278 98" fill="none" xmlns="http://www.w3.org/2000/svg">
<path d="M174.188 51.3709C174.188 46.9393 171.583 44.84 164.332 43.394C160.298 42.6009 159.327 41.7613 159.327 40.5951C159.327 39.149 160.757 38.4959 163.413 38.4959C166.63 38.4959 169.795 39.3822 172.809 40.6417V34.8107C170.715 33.831 167.447 33.0847 163.617 33.0847C156.416 33.0847 152.688 35.9302 152.688 40.6417C152.688 44.3735 154.578 47.3591 162.034 48.6653C166.476 49.5049 167.396 50.158 167.396 51.5108C167.396 52.8169 166.476 53.6566 163.31 53.6566C159.685 53.6566 155.344 52.5371 152.535 50.9977V57.1086C154.782 58.1349 157.744 59.2544 163.259 59.2544C171.124 59.2544 174.188 56.0824 174.188 51.3709Z" fill="#D9D7E6"/>
<path d="M252.781 33.4579V58.8812H258.706V39.4755L261.208 44.6535L269.582 58.8812H277.039V33.4579H271.115V49.8781L268.868 45.12L262.128 33.4579H252.781Z" fill="#D9D7E6"/>
<path d="M215.094 33.4579H208.607V58.8346H215.094V33.4579Z" fill="#D9D7E6"/>
<path d="M201.151 51.3709C201.151 46.9393 198.547 44.84 191.295 43.394C187.261 42.6009 186.291 41.7613 186.291 40.5951C186.291 39.149 187.721 38.4959 190.376 38.4959C193.593 38.4959 196.76 39.3822 199.772 40.6417V34.8107C197.679 33.831 194.41 33.0847 190.581 33.0847C183.38 33.0847 179.652 35.9302 179.652 40.6417C179.652 44.3735 181.541 47.3591 188.997 48.6653C193.441 49.5049 194.359 50.158 194.359 51.5108C194.359 52.8169 193.441 53.6566 190.274 53.6566C186.648 53.6566 182.308 52.5371 179.498 50.9977V57.1086C181.746 58.1349 184.707 59.2544 190.223 59.2544C198.087 59.2544 201.151 56.0824 201.151 51.3709Z" fill="#D9D7E6"/>
<path d="M102.438 33.4579V58.8812H115.766L117.86 53.3768H108.974V33.4579H102.438Z" fill="#D9D7E6"/>
<path d="M76.1895 33.4579V38.9624H83.3389V58.8812H89.8756V38.9624H97.5868V33.4579H76.1895Z" fill="#D9D7E6"/>
<path d="M66.7409 33.4579H58.2125L48.5098 58.8346H55.9145L57.2934 54.543C58.9275 54.9628 60.6638 55.2427 62.5023 55.2427C64.2896 55.2427 66.0259 55.0094 67.7112 54.543L69.09 58.8346H76.4948L66.7409 33.4579ZM62.4512 50.0181C61.2256 50.0181 60 49.8315 58.8765 49.5516L62.4512 38.4492L66.0259 49.5516C64.9025 49.8315 63.6769 50.0181 62.4512 50.0181Z" fill="#D9D7E6"/>
<path d="M138.696 33.4579H130.168L120.465 58.8346H127.87L129.249 54.543C130.883 54.9628 132.619 55.2427 134.457 55.2427C136.245 55.2427 137.981 55.0094 139.666 54.543L141.045 58.8346H148.449L138.696 33.4579ZM134.457 50.0181C133.232 50.0181 132.006 49.8315 130.883 49.5516L134.457 38.4492L138.032 49.5516C136.858 49.8315 135.683 50.0181 134.457 50.0181Z" fill="#D9D7E6"/>
<path d="M238.432 33.4579H229.904L220.201 58.8346H227.606L228.985 54.543C230.618 54.9628 232.355 55.2427 234.194 55.2427C235.98 55.2427 237.717 55.0094 239.402 54.543L240.782 58.8346H248.187L238.432 33.4579ZM234.143 50.0181C232.916 50.0181 231.69 49.8315 230.567 49.5516L234.143 38.4492L237.717 49.5516C236.593 49.8315 235.418 50.0181 234.143 50.0181Z" fill="#D9D7E6"/>
<path d="M11.1281 42.4144C10.9749 42.2278 10.6685 42.1344 10.4131 42.1344C10.2088 42.1812 10.0046 42.321 9.90243 42.5077L1.47626 57.9016C1.27199 58.2281 1.42519 58.648 1.78266 58.788C1.88479 58.8346 1.98693 58.8812 2.08907 58.8812H13.8346C14.09 58.8812 14.3964 58.7413 14.4985 58.5081C17.0008 53.8433 15.4688 46.6127 11.1281 42.4144Z" fill="#D9D7E6"/>
<path d="M35.1809 57.9016C34.9766 57.6218 19.4009 29.0729 18.9925 28.3732C18.8903 28.1399 18.686 28 18.4307 28H18.3796C18.1243 28 17.869 28.1399 17.7157 28.3732C13.4771 34.4841 13.0175 41.9012 16.439 48.1521L22.1075 58.4614C22.2097 58.6947 22.4651 58.8346 22.7714 58.8346H34.517C34.9256 58.8346 35.232 58.5547 35.232 58.1815C35.232 58.0883 35.232 57.9949 35.1809 57.9016Z" fill="#D9D7E6"/>
</svg>
