<svg width="278" height="98" viewBox="0 0 278 98" fill="none" xmlns="http://www.w3.org/2000/svg">
<path fill-rule="evenodd" clip-rule="evenodd" d="M17.6819 21.35L33.4344 35.8584V35.855V21.3835H36.5008V35.9233L52.3238 21.35V37.8917H58.8203V61.7515H52.3438V76.4811L36.5008 62.5669V76.6409H33.4344V62.7963L17.6997 76.65V61.7515H11.2031V37.8917H17.6819V21.35ZM31.1227 40.9195H14.2695V58.7237H17.6959V53.1076L31.1227 40.9195ZM20.7659 54.4511V69.8936L33.4344 58.7396V42.9487L20.7659 54.4511ZM36.589 58.5921V42.9338L49.2611 54.4369V61.7515H49.2774V69.7359L36.589 58.5921ZM52.3438 58.7237H55.7539V40.9195H39.0262L52.3438 52.9814V58.7237ZM49.2574 37.8917V28.3147L38.8591 37.8917H49.2574ZM31.1465 37.8917H20.7483V28.3147L31.1465 37.8917Z" fill="#D9D7E6"/>
<mask id="mask0_2444_6" style="mask-type:luminance" maskUnits="userSpaceOnUse" x="71" y="28" width="196" height="42">
<path d="M266.796 28.7H71.9512V69.3H266.796V28.7Z" fill="white"/>
</mask>
<g mask="url(#mask0_2444_6)">
<path d="M134.582 37.5284H136.529V41.539H134.009C132.033 41.539 130.561 42.014 129.584 42.9667C128.614 43.9164 128.126 45.4785 128.126 47.6497V60.8006H124.147V37.6199H128.126V41.3189C128.126 41.5277 128.231 41.6307 128.435 41.6307C128.551 41.6307 128.639 41.602 128.702 41.542C128.764 41.4818 128.818 41.3646 128.88 41.1843C129.647 38.7499 131.551 37.5312 134.585 37.5312H134.582V37.5284ZM161.049 42.4975C162.093 44.3541 162.618 46.5913 162.618 49.206C162.618 51.8206 162.096 54.0578 161.049 55.9144C160.001 57.7712 158.645 59.1614 156.979 60.0826C155.313 61.0038 153.522 61.4644 151.607 61.4644C147.832 61.4644 145.179 59.9482 143.646 56.9158C143.53 56.6783 143.379 56.5581 143.204 56.5581C143.028 56.5581 142.937 56.6468 142.937 56.827V69.2657H138.958V37.6169H142.937V41.5849C142.937 41.7622 143.025 41.8539 143.204 41.8539C143.382 41.8539 143.527 41.7364 143.646 41.4962C145.179 38.4638 147.832 36.9476 151.607 36.9476C153.522 36.9476 155.313 37.4082 156.979 38.3294C158.645 39.2506 159.999 40.6408 161.049 42.4975ZM158.642 49.206C158.642 46.4711 157.913 44.3397 156.454 42.8094C154.995 41.2788 153.074 40.5149 150.682 40.5149C148.289 40.5149 146.368 41.2816 144.909 42.8094C143.448 44.3397 142.914 46.4739 142.914 49.206C142.914 51.9381 143.45 54.0722 144.909 55.6026C146.368 57.1361 148.292 57.897 150.682 57.897C153.071 57.897 154.995 57.1303 156.454 55.6026C157.913 54.075 158.642 51.9381 158.642 49.206ZM94.0389 42.5318C95.0833 44.3884 95.6083 46.6256 95.6083 49.2403C95.6083 51.8551 95.0861 54.0921 94.0389 55.9487C92.9916 57.8055 91.6353 59.1958 89.9694 60.1169C88.3035 61.0381 86.5127 61.4987 84.597 61.4987C80.8227 61.4987 78.1691 59.9825 76.6366 56.9501C76.5203 56.7126 76.3699 56.5925 76.1938 56.5925C76.0179 56.5925 75.9272 56.6811 75.9272 56.8613V69.3H71.9512V37.6514H75.93V41.6192C75.93 41.7966 76.0179 41.8882 76.1968 41.8882C76.3755 41.8882 76.5203 41.7709 76.6395 41.5305C78.172 38.4981 80.8255 36.9819 84.6 36.9819C86.5155 36.9819 88.3063 37.4425 89.9722 38.3637C91.6381 39.2849 92.9918 40.6752 94.0418 42.5318H94.0389ZM91.6295 49.2403C91.6295 46.5054 90.9002 44.3742 89.4415 42.8437C87.9827 41.3159 86.0586 40.5492 83.669 40.5492C81.2796 40.5492 79.3555 41.3159 77.8967 42.8437C76.438 44.377 75.9016 46.5083 75.9016 49.2403C75.9016 51.9724 76.438 54.1065 77.8967 55.637C79.3555 57.1704 81.2766 57.9313 83.669 57.9313C86.0614 57.9313 87.9827 57.1646 89.4415 55.637C90.9002 54.1093 91.6295 51.9724 91.6295 49.2403ZM117.114 53.4371H121.315C120.755 55.6083 119.612 57.4879 117.889 59.0756C116.164 60.6662 113.695 61.4586 110.479 61.4586C108.061 61.4586 105.933 60.9609 104.091 59.9653C102.249 58.9697 100.827 57.5536 99.8226 55.7084C98.8181 53.8662 98.3186 51.6976 98.3186 49.2002C98.3186 46.7028 98.8067 44.5343 99.7773 42.6919C100.748 40.8497 102.113 39.4306 103.867 38.4352C105.621 37.4397 107.675 36.9418 110.034 36.9418C112.392 36.9418 114.347 37.4339 115.982 38.4123C117.619 39.3935 118.84 40.6952 119.651 42.3115C120.463 43.9336 120.866 45.7072 120.866 47.6383V50.313H102.516C102.661 52.6304 103.438 54.4756 104.837 55.84C106.236 57.2075 108.118 57.8912 110.476 57.8912C112.392 57.8912 113.862 57.4994 114.878 56.7098C115.894 55.9202 116.638 54.8303 117.111 53.4313L117.114 53.4371ZM102.434 46.9745H116.32C116.32 44.9549 115.803 43.3701 114.77 42.2257C113.737 41.0842 112.117 40.5092 109.906 40.5092C107.843 40.5092 106.154 41.0671 104.843 42.1829C103.532 43.2957 102.729 44.8948 102.434 46.9745ZM165.828 60.795H169.809V28.7H165.828V60.7978V60.795ZM221.786 35.0852H226.435V30.0674H221.786V35.0852ZM238.952 57.3421C238.229 57.4165 237.792 57.4535 237.648 57.4535C237.443 57.4535 237.275 57.3935 237.16 57.2733C237.043 57.156 236.981 56.9929 236.981 56.7812C236.981 56.6354 237.02 56.1948 237.095 55.4654C237.165 54.7388 237.205 53.6144 237.205 52.101V41.0098H242.881L241.762 37.6141H237.207V31.372H233.23V37.6113H228.9V41.007H233.23V53.211C233.23 55.7686 233.851 57.6709 235.087 58.9183C236.325 60.1655 238.212 60.792 240.75 60.792H243.846V57.2276H242.296C240.792 57.2276 239.679 57.2647 238.956 57.3391L238.952 57.3421ZM263.004 37.6141L256.415 57.0645C256.327 57.3048 256.187 57.6167 255.738 57.6167C255.286 57.6167 255.144 57.3048 255.055 57.0645L248.465 37.6141H244.407L252.038 60.795H254.738C254.913 60.795 255.048 60.8122 255.139 60.8407C255.226 60.8694 255.3 60.9437 255.359 61.0638C255.475 61.2412 255.461 61.5101 255.314 61.865L254.076 65.2521C253.898 65.6983 253.56 65.9214 253.061 65.9214C252.882 65.9214 252.471 65.8842 251.823 65.8098C251.174 65.7354 250.337 65.6983 249.304 65.6983H246.074V69.2627H250.319C252.796 69.2627 254.286 68.8394 255.569 67.9926C256.853 67.1459 257.845 65.6525 258.554 63.5127L266.796 38.5038V37.6141H263.01H263.004ZM208.318 46.2623L202.082 37.6141H197.704V38.5038L205.176 48.5336L196.066 59.9023V60.792H200.533L207.786 51.4745L214.552 60.792H218.843V59.9023L210.925 49.2032L219.508 38.5497V37.6141H215.041L208.32 46.2623H208.318ZM222.209 60.795H226.19V37.6169H222.209V60.7978V60.795ZM196.011 53.4371C195.449 55.6083 194.31 57.4879 192.587 59.0756C190.861 60.6662 188.393 61.4586 185.177 61.4586C182.759 61.4586 180.63 60.9609 178.789 59.9653C176.943 58.9697 175.525 57.5536 174.52 55.7084C173.519 53.8662 173.019 51.6976 173.019 49.2002C173.019 46.7028 173.507 44.5343 174.478 42.6919C175.452 40.8497 176.814 39.4306 178.568 38.4352C180.32 37.4397 182.376 36.9418 184.737 36.9418C187.099 36.9418 189.051 37.4339 190.688 38.4123C192.323 39.3935 193.546 40.6952 194.357 42.3115C195.169 43.9336 195.572 45.7072 195.572 47.6383V50.313H177.22C177.367 52.6304 178.141 54.4756 179.541 55.84C180.94 57.2075 182.822 57.8912 185.18 57.8912C187.095 57.8912 188.566 57.4994 189.581 56.7098C190.597 55.9202 191.341 54.8303 191.812 53.4313H196.015L196.011 53.4371ZM177.231 46.9745H191.117C191.117 44.9549 190.6 43.3701 189.571 42.2257C188.536 41.0842 186.917 40.5092 184.706 40.5092C182.642 40.5092 180.954 41.0671 179.643 42.1829C178.332 43.2957 177.526 44.8948 177.234 46.9745H177.231Z" fill="#D9D7E6"/>
</g>
</svg>
