<svg width="278" height="98" viewBox="0 0 278 98" fill="none" xmlns="http://www.w3.org/2000/svg">
<g clip-path="url(#clip0_2445_35)">
<path d="M66.8701 38.7941C68.8645 29.468 63.4512 19.571 51.6749 19.571H33.3457L30.3066 33.8456H44.0773C46.9264 33.8456 48.7308 36.1295 48.066 38.9844C47.4962 41.8393 44.7421 44.0281 41.893 44.0281H28.0273L46.7365 78.7629H66.3953L53.7642 55.4477C57.0882 53.5445 64.7808 48.5008 66.8701 38.7941Z" fill="#D9D7E6"/>
<path d="M7.22898 63.4415L4 78.7629H20.7147L28.0274 44.0281C17.8656 44.4087 9.88815 51.1654 7.22898 63.4415Z" fill="#D9D7E6"/>
<path d="M18.2458 34.702C22.6144 34.702 26.1283 31.181 26.1283 26.8034C26.1283 22.5211 22.6144 19 18.2458 19C13.8772 19 10.3633 22.5211 10.3633 26.8986C10.3633 31.181 13.8772 34.702 18.2458 34.702Z" fill="#D9D7E6"/>
<path d="M259.564 19.571H243.799L235.727 58.2075C233.352 69.532 241.425 80 260.229 80C260.419 80 260.704 80 260.704 80L263.933 64.869C257.95 65.7254 250.352 63.5367 251.682 57.0655L253.771 47.454H267.637L270.486 33.9407H256.62L259.564 19.571Z" fill="#D9D7E6"/>
<path d="M154.148 34.0359C151.014 34.0359 145.601 34.7972 143.797 35.844L147.216 19.571H131.451L123.473 57.0655C120.624 70.2933 129.646 80 144.461 80C161.081 80 172.098 72.8627 175.232 58.0172C178.271 43.7426 167.729 34.0359 154.148 34.0359ZM159.657 57.0655C158.422 62.7754 153.769 66.6771 147.216 66.6771C140.663 66.6771 138.004 62.4899 139.333 56.6849C140.568 50.7847 144.841 47.454 151.394 47.454C157.947 47.3588 160.891 51.3557 159.657 57.0655Z" fill="#D9D7E6"/>
<path d="M210.371 34.0359C195.46 34.0359 182.544 42.8861 179.6 56.9704C176.656 71.1498 185.868 79.9048 200.399 79.9048C218.253 79.9048 228.7 71.0546 231.644 56.9704C234.493 42.8861 225.281 34.0359 210.371 34.0359ZM215.784 57.0655C214.549 62.7754 210.086 66.6771 203.533 66.6771C196.98 66.6771 194.131 62.7754 195.365 56.8752C196.6 50.975 200.969 47.3588 207.616 47.3588C214.074 47.3588 217.019 51.3557 215.784 57.0655Z" fill="#D9D7E6"/>
<path d="M97.8296 34.0359C82.9193 34.0359 70.0034 42.8861 67.0593 56.9704C64.1152 71.2449 73.3273 80 87.8577 80C105.712 80 116.159 71.1498 119.103 57.0655C122.047 42.8861 112.74 34.0359 97.8296 34.0359ZM103.243 57.0655C102.008 62.7754 97.5447 66.6771 90.9918 66.6771C84.4388 66.6771 81.5897 62.7754 82.8243 56.8752C84.0589 50.975 88.4276 47.3588 95.0755 47.3588C101.628 47.3588 104.478 51.3557 103.243 57.0655Z" fill="#D9D7E6"/>
<path d="M269.252 20.142C271.911 20.142 274.095 22.3307 274.095 24.9953C274.095 27.6599 271.911 29.8487 269.252 29.8487C266.592 29.8487 264.408 27.6599 264.408 24.9953C264.408 22.3307 266.592 20.142 269.252 20.142ZM269.252 28.9922C271.436 28.9922 273.24 27.1841 273.24 24.9953C273.24 22.8066 271.436 20.9984 269.252 20.9984C267.067 20.9033 265.168 22.8066 265.168 24.9953C265.168 27.1841 267.067 28.9922 269.252 28.9922ZM271.816 27.6599H270.866L269.157 25.4711H268.302V27.6599H267.447V22.1404H269.347C270.866 22.1404 271.341 22.9969 271.341 23.7582C271.341 24.6147 270.771 25.1856 270.011 25.2808L271.816 27.6599ZM269.252 22.9017H268.207V24.7098H269.252C270.011 24.7098 270.391 24.4243 270.391 23.7582C270.391 23.4727 270.296 22.9017 269.252 22.9017Z" fill="#D9D7E6"/>
</g>
<defs>
<clipPath id="clip0_2445_35">
<rect width="270" height="61" fill="white" transform="translate(4 19)"/>
</clipPath>
</defs>
</svg>
