<svg width="278" height="98" viewBox="0 0 278 98" fill="none" xmlns="http://www.w3.org/2000/svg">
<g clip-path="url(#clip0_2227_292)">
<path fill-rule="evenodd" clip-rule="evenodd" d="M74.2893 26.1968L50.5844 72.5372H28.3189L38.2394 53.3318H37.7944C29.6101 63.956 17.399 70.95 0 72.5372V53.5974C0 53.5974 11.1305 52.94 17.6739 46.0607H0V26.1972H19.8635V42.5346L20.3093 42.5328L28.4263 26.1972H43.4486V42.4311L43.8944 42.4303L52.3157 26.1968H74.2893Z" fill="#D9D7E6"/>
<path d="M203.553 67.422H209.95V30.7021H203.553V67.422Z" fill="#D9D7E6"/>
<path fill-rule="evenodd" clip-rule="evenodd" d="M168.285 67.0472C169.676 67.6251 171.089 67.9142 172.527 67.9142C174.901 67.9142 177.026 67.336 178.9 66.18C180.775 65.024 182.228 63.4306 183.259 61.3997C184.29 59.3533 184.806 57.0333 184.806 54.4399C184.806 51.8468 184.275 49.5269 183.212 47.4804C182.15 45.4338 180.674 43.8482 178.783 42.7234C176.893 41.583 174.745 41.0206 172.339 41.0362C170.808 41.0362 169.34 41.333 167.934 41.9267C166.528 42.5203 165.356 43.3639 164.419 44.4575C164.346 44.5407 164.276 44.6248 164.208 44.7098V30.7256H157.787V67.422H164.161L164.148 63.9938C164.313 64.1959 164.489 64.3936 164.677 64.5867C165.692 65.6333 166.895 66.4534 168.285 67.0472ZM174.847 61.1186C173.8 61.759 172.605 62.0792 171.261 62.0792C169.933 62.0792 168.715 61.7513 167.606 61.0952C166.496 60.4233 165.614 59.5096 164.958 58.3533C164.317 57.1973 163.997 55.885 163.997 54.4165C163.981 52.9482 164.294 51.6359 164.934 50.4798C165.59 49.3082 166.473 48.4021 167.582 47.7616C168.691 47.1054 169.918 46.7852 171.261 46.8008C172.605 46.7852 173.8 47.0976 174.847 47.7381C175.909 48.363 176.721 49.2613 177.284 50.433C177.862 51.589 178.151 52.9168 178.151 54.4165C178.151 55.9164 177.862 57.2441 177.284 58.4004C176.721 59.5564 175.909 60.4625 174.847 61.1186Z" fill="#D9D7E6"/>
<path d="M83.5566 32.9283H90.8678L97.408 56.8132L104.365 32.9283H110.458L118.004 56.3339L124.284 32.9283H130.986L121.097 67.422H114.793L107.12 44.5568L100.077 67.422H93.7031L83.5566 32.9283Z" fill="#D9D7E6"/>
<path fill-rule="evenodd" clip-rule="evenodd" d="M141.783 68.0313C139.236 68.047 136.94 67.4845 134.893 66.3442C132.863 65.1882 131.261 63.5869 130.09 61.5402C128.934 59.4938 128.355 57.1584 128.355 54.5339C128.355 51.9873 128.949 49.6831 130.136 47.6209C131.324 45.5588 132.933 43.9497 134.964 42.7937C136.995 41.6377 139.26 41.0596 141.759 41.0596C144.571 41.0596 147.032 41.6845 149.141 42.9343C151.266 44.1841 152.851 45.9572 153.898 48.2537C154.96 50.5345 155.343 53.1513 155.046 56.1038H134.974C135.03 57.2801 135.323 58.3502 135.854 59.3142C136.448 60.3765 137.276 61.2043 138.338 61.7981C139.4 62.3917 140.588 62.6885 141.9 62.6885C142.9 62.6728 143.829 62.5011 144.688 62.1729C145.548 61.8293 146.274 61.3685 146.868 60.7904C147.477 60.2125 147.907 59.5564 148.157 58.822H154.859C154.452 60.6187 153.64 62.2198 152.422 63.6257C151.203 65.0163 149.672 66.102 147.829 66.883C145.985 67.6642 143.97 68.047 141.783 68.0313ZM135.878 49.6596C135.503 50.3125 135.244 51.0155 135.1 51.7685H148.405C148.308 50.8171 148.015 49.9501 147.524 49.1676C146.962 48.2458 146.196 47.535 145.227 47.0351C144.259 46.5196 143.165 46.2618 141.947 46.2618C140.65 46.2618 139.471 46.5587 138.409 47.1523C137.346 47.7459 136.502 48.5817 135.878 49.6596Z" fill="#D9D7E6"/>
<path d="M189.517 41.5986C189.517 39.5053 189.993 37.6462 190.946 36.0215C191.899 34.3812 193.235 33.108 194.953 32.2019C196.687 31.2802 198.711 30.8037 201.023 30.7725V36.4668C199.945 36.4824 199.023 36.7089 198.258 37.1463C197.508 37.5681 196.93 38.1852 196.523 38.9976C196.149 39.7454 195.948 40.6125 195.918 41.5986H200.882V47.0117H195.914V67.422H189.517V47.0117H185.393V41.5986H189.517Z" fill="#D9D7E6"/>
<path fill-rule="evenodd" clip-rule="evenodd" d="M226.212 67.9844C223.604 67.9844 221.268 67.4143 219.206 66.2739C217.159 65.1177 215.55 63.5243 214.379 61.4934C213.223 59.447 212.645 57.127 212.645 54.5338C212.645 51.9248 213.223 49.5972 214.379 47.5506C215.55 45.4885 217.159 43.8872 219.206 42.7468C221.268 41.6064 223.604 41.0362 226.212 41.0362C228.837 41.0362 231.18 41.6064 233.243 42.7468C235.32 43.8872 236.937 45.4807 238.093 47.5272C239.249 49.5737 239.835 51.9093 239.851 54.5338C239.835 57.127 239.249 59.447 238.093 61.4934C236.953 63.5243 235.344 65.1177 233.266 66.2739C231.188 67.4143 228.837 67.9844 226.212 67.9844ZM226.212 62.1026C227.587 62.1026 228.806 61.7902 229.868 61.1654C230.93 60.5247 231.751 59.6344 232.328 58.4941C232.907 57.338 233.196 56.0178 233.196 54.5338C233.196 53.0339 232.907 51.7061 232.328 50.5501C231.751 49.3941 230.93 48.5036 229.868 47.8787C228.806 47.2382 227.587 46.9179 226.212 46.9179C224.853 46.9179 223.643 47.2382 222.58 47.8787C221.534 48.5036 220.721 49.3941 220.143 50.5501C219.565 51.7061 219.284 53.0339 219.3 54.5338C219.3 56.0178 219.589 57.338 220.167 58.4941C220.76 59.6344 221.573 60.5247 222.604 61.1654C223.65 61.7902 224.853 62.1026 226.212 62.1026Z" fill="#D9D7E6"/>
<path d="M246.764 41.5986H239.641L247.35 67.422H253.583L258.654 50.9287L264.129 67.422H270.268L278.001 41.5986H271.558L267.172 57.6722L262.325 41.5986H256.091L251.267 58.0261L246.764 41.5986Z" fill="#D9D7E6"/>
</g>
<defs>
<clipPath id="clip0_2227_292">
<rect width="278" height="46.5907" fill="white" transform="translate(0 26)"/>
</clipPath>
</defs>
</svg>
